<?xml version="1.0" encoding="utf-8"?>
<!-- Generator: Adobe Illustrator 19.2.1, SVG Export Plug-In . SVG Version: 6.00 Build 0)  -->
<svg version="1.1" id="Layer_1" xmlns="http://www.w3.org/2000/svg" xmlns:xlink="http://www.w3.org/1999/xlink" x="0px" y="0px"
	 viewBox="0 0 18.9 15.1" style="enable-background:new 0 0 18.9 15.1;" xml:space="preserve">
<style type="text/css">
	.st0{fill:#FFFFFF;}
</style>
<path class="st0" d="M10.9,3.8c0-0.2-0.2-0.3-0.3-0.3H9.3c0.1-1.1,0.1-1.9,0.1-1.9H1.7c0,0,0,0.8,0.1,1.9H0.5
	c-0.2,0-0.3,0.1-0.3,0.3c0,0.1-0.3,2,0.9,3.6c0.5,0.6,1.1,1,1.9,1.3c0.5,0.9,1.1,1.6,2,1.8v1c0,0-0.1,1.8-2.6,1.8v0.3h6.2v-0.3
	c-3,0-2.8-1.7-2.8-1.7l0-1c1-0.1,1.8-0.9,2.3-2c0.7-0.3,1.2-0.6,1.7-1.2C11.2,5.9,10.9,3.9,10.9,3.8z M1.6,6.9
	c-0.8-1-0.9-2.3-0.8-2.8h1.1C2,5.3,2.2,6.6,2.6,7.8C2.2,7.6,1.9,7.3,1.6,6.9z M6.4,6.1l0.2,1.3L5.5,6.8L4.4,7.4l0.2-1.3l-1-0.9L5,5
	l0.6-1.2L6.1,5l1.3,0.2L6.4,6.1z M9.4,7C9.1,7.3,8.8,7.5,8.5,7.7c0.4-1.1,0.6-2.4,0.7-3.6h1.1C10.3,4.7,10.2,6,9.4,7z"/>
</svg>
