<?xml version="1.0" encoding="utf-8"?>
<!-- Generator: Adobe Illustrator 19.2.1, SVG Export Plug-In . SVG Version: 6.00 Build 0)  -->
<svg version="1.1" id="Layer_1" xmlns="http://www.w3.org/2000/svg" xmlns:xlink="http://www.w3.org/1999/xlink" x="0px" y="0px"
	 viewBox="0 0 12.9 9.8" style="enable-background:new 0 0 12.9 9.8;" xml:space="preserve">
<style type="text/css">
	.st0{fill:#939598;}
</style>
<g>
	<g>
		<g>
			<g>
				<path class="st0" d="M11.7,2.4H4c-0.7,0-1.2-0.5-1.2-1.2S3.3,0,4,0h7.7c0.7,0,1.2,0.5,1.2,1.2S12.4,2.4,11.7,2.4z"/>
			</g>
			<g>
				<circle class="st0" cx="1" cy="1.2" r="1"/>
			</g>
		</g>
		<g>
			<g>
				<path class="st0" d="M11.7,6.3H4c-0.7,0-1.2-0.5-1.2-1.2S3.3,3.8,4,3.8h7.7c0.7,0,1.2,0.5,1.2,1.2S12.4,6.3,11.7,6.3z"/>
			</g>
			<g>
				<circle class="st0" cx="1" cy="5.1" r="1"/>
			</g>
		</g>
		<g>
			<g>
				<path class="st0" d="M11.7,9.8H4c-0.7,0-1.2-0.5-1.2-1.2S3.3,7.4,4,7.4h7.7c0.7,0,1.2,0.5,1.2,1.2S12.4,9.8,11.7,9.8z"/>
			</g>
			<g>
				<circle class="st0" cx="1" cy="8.6" r="1"/>
			</g>
		</g>
	</g>
</g>
</svg>
