<?xml version="1.0" encoding="utf-8"?>
<!-- Generator: Adobe Illustrator 19.2.1, SVG Export Plug-In . SVG Version: 6.00 Build 0)  -->
<svg version="1.1" id="Layer_1" xmlns="http://www.w3.org/2000/svg" xmlns:xlink="http://www.w3.org/1999/xlink" x="0px" y="0px"
	 viewBox="0 0 352.3 159.6" style="enable-background:new 0 0 352.3 159.6;" xml:space="preserve">
<style type="text/css">
	.st0{fill:#B91568;}
</style>
<path class="st0" d="M158.4,69.8c-3.3,0-4.5-1.4-4.5-4.1c0-2.7,1.2-4.1,4.5-4.1c3.2,0,4.5,1.5,4.5,4.1
	C162.9,68.4,161.7,69.8,158.4,69.8z M153.4,104.8V77.1c0-5.1,1.2-5.1,9.4-5.1v32.9L153.4,104.8L153.4,104.8z"/>
<path class="st0" d="M178.9,105.1l-11.8-32.2v-0.6h11l6.6,22.5l7.1-22.5h10.6l-13.1,32.9L178.9,105.1z"/>
<path class="st0" d="M231.6,99.1c0,4.7-6.9,6.4-12.7,6.4c-9.9,0-16.8-6.1-16.8-18c0-9.1,6.4-15.9,16.4-15.9
	c9.8,0,15.2,6.3,15.2,15.7c0,3.4-2.8,4.3-5.4,4.3h-15.9c1.2,4.4,4.5,6.6,10.4,6.6c3,0,5.8-0.5,8.6-1.6L231.6,99.1L231.6,99.1z
	 M211.9,85.8h10.4c1.2,0,1.6-1,1.6-1.6c0-3.6-2.1-6-5.5-6C214.1,78.2,212.2,81.1,211.9,85.8z"/>
<path class="st0" d="M106.5,83.5c0-0.5,0-1-0.1-1.6c-0.3-11.7-9.8-21.1-21.6-21.1H48.4V23.2c0-12-9.7-21.7-21.7-21.7H3.2
	c0,0,0,82.9,0,83l0,0c0,9.5,6.2,17.6,14.6,20.5c0,0,4.2,1.3,7,1.2l0,0l0,0h64.3l-28,8.4v20.9l0.1,0.1v0.9c0,12,9.7,21.7,21.7,21.7
	h1.9l0,0h0.1l0,0h21.7v-21.7v-2L106.5,83.5z"/>
<path class="st0" d="M134.4,96.2c-2.9,0-4.2-1.2-4.2-4.1V61.5h-10V93c0,8.8,3,11.9,12.2,11.9H148v-8.7
	C148,96.2,134.4,96.2,134.4,96.2z"/>
<path class="st0" d="M265.4,61.8V80h-18V61.6h-10V105h10V88.9h18v0.2V100c0,5.1,1.3,5.1,10,5.1V61.7L265.4,61.8L265.4,61.8z"/>
<path class="st0" d="M336.7,71.7c-5,0-9,2.4-11.6,6.5V67.5v-6h-9.4l-0.1,43.4h9.4v-3.2c2.2,2.7,5.3,3.9,9,3.9c8.9,0,15-8.4,15-18.4
	C349.2,78.2,345.1,71.7,336.7,71.7z M331.7,97.7c-4.3,0-6.2-3.8-6.2-7.3c0-6.4,3-11,7.7-11c4.5,0,6.1,3.9,6.1,8.1
	C339.4,92.6,336.7,97.7,331.7,97.7z"/>
<path class="st0" d="M301.9,72.3v17.9c0,4.7-2.2,7.1-6.1,7.1s-5.8-2.5-5.8-7.1V72h-9.4v19.4c0,10.1,6.7,14.3,15.2,14.3
	c8.4,0,15.5-4.2,15.5-14.3V72.2L301.9,72.3L301.9,72.3z"/>
</svg>
