<?xml version="1.0" encoding="utf-8"?>
<!-- Generator: Adobe Illustrator 19.2.1, SVG Export Plug-In . SVG Version: 6.00 Build 0)  -->
<svg version="1.1" id="Layer_1" xmlns="http://www.w3.org/2000/svg" xmlns:xlink="http://www.w3.org/1999/xlink" x="0px" y="0px"
	 viewBox="0 0 14.7 10.6" style="enable-background:new 0 0 14.7 10.6;" xml:space="preserve">
<style type="text/css">
	.st0{fill:#939598;}
</style>
<g>
	<path class="st0" d="M14.6,9.7c0.1-0.2,0.1-0.3,0.1-0.5V1.5c0-0.2,0-0.4-0.1-0.5L9.5,4.8L14.6,9.7z"/>
	<path class="st0" d="M7.4,5.3l7.2-4.4C14.4,0.4,13.9,0,13.3,0H1.5C0.8,0,0.3,0.4,0.1,0.9L7.4,5.3z"/>
	<path class="st0" d="M9,5.2L7.3,6.5L5.5,5.1l-5.1,5.1c0.3,0.3,0.6,0.4,1,0.4h11.8c0.4,0,0.8-0.2,1.1-0.5L9,5.2z"/>
	<path class="st0" d="M5.1,4.8l-5-3.8C0,1.1,0,1.3,0,1.5v7.7c0,0.2,0.1,0.5,0.2,0.7L5.1,4.8z"/>
</g>
</svg>
