<?xml version="1.0" encoding="utf-8"?>
<!-- Generator: Adobe Illustrator 19.2.1, SVG Export Plug-In . SVG Version: 6.00 Build 0)  -->
<svg version="1.1" id="Layer_1" xmlns="http://www.w3.org/2000/svg" xmlns:xlink="http://www.w3.org/1999/xlink" x="0px" y="0px"
	 viewBox="0 0 18.9 15.1" style="enable-background:new 0 0 18.9 15.1;" xml:space="preserve">
<style type="text/css">
	.st0{fill:#FFFFFF;}
</style>
<g>
	<g>
		<g>
			<path class="st0" d="M17.8,5.1h-8C9.2,5.1,8.8,4.6,8.8,4s0.5-1.1,1.1-1.1h8c0.6,0,1.1,0.5,1.1,1.1S18.4,5.1,17.8,5.1z"/>
		</g>
		<g>
			<circle class="st0" cx="6.7" cy="4" r="1.1"/>
		</g>
	</g>
	<g>
		<g>
			<path class="st0" d="M17.8,9h-8C9.2,9,8.8,8.6,8.8,8s0.5-1.1,1.1-1.1h8c0.6,0,1.1,0.5,1.1,1.1S18.4,9,17.8,9z"/>
		</g>
		<g>
			<circle class="st0" cx="6.7" cy="8" r="1.1"/>
		</g>
	</g>
	<g>
		<g>
			<path class="st0" d="M17.8,12.7h-8c-0.6,0-1.1-0.5-1.1-1.1c0-0.6,0.5-1.1,1.1-1.1h8c0.6,0,1.1,0.5,1.1,1.1
				C18.9,12.2,18.4,12.7,17.8,12.7z"/>
		</g>
		<g>
			<circle class="st0" cx="6.7" cy="11.6" r="1.1"/>
		</g>
	</g>
</g>
</svg>
