<?xml version="1.0" encoding="utf-8"?>
<!-- Generator: Adobe Illustrator 19.2.1, SVG Export Plug-In . SVG Version: 6.00 Build 0)  -->
<svg version="1.1" id="Layer_1" xmlns="http://www.w3.org/2000/svg" xmlns:xlink="http://www.w3.org/1999/xlink" x="0px" y="0px"
	 viewBox="0 0 15.1 15.1" style="enable-background:new 0 0 15.1 15.1;" xml:space="preserve">
<style type="text/css">
	.st0{fill:#939598;}
</style>
<g>
	<path class="st0" d="M4.2,11.3l3.6-5.7C7.7,5.4,7.6,5.2,7.6,4.9c0-0.9,0.7-1.6,1.6-1.6s1.6,0.7,1.6,1.6c0,0.3-0.1,0.6-0.3,0.9
		L12,8.1l2.4-3.6C13.3,1.9,10.6,0,7.5,0C4.6,0,2.1,1.7,0.8,4.1L4.2,11.3z"/>
	<path class="st0" d="M12,9.9L9.8,6.4C9.6,6.5,9.4,6.5,9.2,6.5s-0.5,0-0.7-0.1l-4.4,7l-3.8-8l0,0C0.1,6.1,0,6.8,0,7.5
		C0,11.7,3.4,15,7.5,15S15,11.6,15,7.5c0-0.6-0.1-1.2-0.2-1.8L12,9.9z"/>
</g>
</svg>
